<svg width="172" height="24" viewBox="0 0 172 24" fill="none" xmlns="http://www.w3.org/2000/svg">
<path d="M0.821045 0H171.495C171.495 0 167.487 0 167.487 4.09691C167.487 5.06749 167.487 6.67025 167.487 8.55118C167.487 16.8354 160.772 23.5547 152.487 23.5547H19.0031C10.7188 23.5547 4.00308 16.8356 4.00308 8.55136C4.00308 7.11649 4.00308 5.88752 4.00308 5.05354C4.00308 0.84124 0.821045 0 0.821045 0Z" fill="#0F3041" fill-opacity="0.4"/>
<path fill-rule="evenodd" clip-rule="evenodd" d="M127.5 15C129.985 15 132 12.9853 132 10.5C132 8.01472 129.985 6 127.5 6C125.015 6 123 8.01472 123 10.5C123 12.9853 125.015 15 127.5 15Z" fill="#0A0A0A" fill-opacity="0.7"/>
<rect x="66" y="8" width="39.5242" height="5.13933" rx="2.56967" fill="#0A0A0A" fill-opacity="0.7"/>
</svg>
