<?xml version="1.0" encoding="UTF-8"?>
<svg width="460px" height="83px" viewBox="0 0 460 83" version="1.1" xmlns="http://www.w3.org/2000/svg" xmlns:xlink="http://www.w3.org/1999/xlink">
    <!-- Generator: Sketch 52.4 (67378) - http://www.bohemiancoding.com/sketch -->
    <title>Logo</title>
    <desc>Created with Sketch.</desc>
    <defs>
        <rect id="path-1" x="0" y="0" width="460" height="83"></rect>
    </defs>
    <g id="Page-1" stroke="none" stroke-width="1" fill="none" fill-rule="evenodd">
        <g id="Desktop-HD" transform="translate(-490.000000, 0.000000)">
            <g id="Logo" transform="translate(490.000000, 0.000000)">
                <mask id="mask-2" fill="white">
                    <use xlink:href="#path-1"></use>
                </mask>
                <use id="Rectangle" fill="#FAFAFA" fill-rule="nonzero" opacity="0.00867280506" xlink:href="#path-1"></use>
                <circle id="Oval-Copy-4" fill="#203555" fill-rule="nonzero" mask="url(#mask-2)" cx="230" cy="-184" r="255"></circle>
                <g id="Group-3" mask="url(#mask-2)">
                    <g transform="translate(260.000000, 15.000000)" id="Path">
                        <path d="M0.544,14.184 L0.544,0.96 L3.568,0.96 L3.568,13.728 C3.568,15 3.952,15.408 4.816,15.408 L5.272,15.384 L5.272,18.048 C4.96,18.096 4.648,18.12 4.312,18.12 C3.328,18.12 2.608,17.976 1.816,17.496 C1.024,16.992 0.544,15.84 0.544,14.184 Z" fill="#61A0C1"></path>
                        <polygon fill="#61A0C1" points="10.552 3.672 7.528 3.672 7.528 0.96 10.552 0.96"></polygon>
                        <polygon fill="#61A0C1" points="10.576 18 7.528 18 7.528 5.76 10.576 5.76"></polygon>
                        <path d="M20.296,18 L16.696,18 L12.256,5.76 L15.472,5.76 L18.016,13.344 C18.136,13.752 18.304,14.496 18.4,14.88 L18.448,15.192 L18.496,15.192 L18.544,14.88 C18.64,14.496 18.808,13.752 18.928,13.344 L21.472,5.76 L24.688,5.76 L20.296,18 Z" fill="#61A0C1"></path>
                        <path d="M25.528,11.88 C25.528,9.984 26.104,8.448 27.256,7.272 C28.432,6.072 29.92,5.472 31.744,5.472 C33.448,5.472 34.792,6.024 35.728,7.128 C36.688,8.208 37.168,9.6 37.168,11.28 L37.096,12.456 L28.648,12.456 C28.84,14.496 30.4,15.696 32.32,15.696 C33.472,15.696 34.816,15.144 35.416,14.688 L35.848,14.352 L37.024,16.536 C36.928,16.632 36.832,16.752 36.16,17.16 C35.344,17.664 33.952,18.288 32.104,18.288 C30.136,18.288 28.552,17.664 27.328,16.44 C26.128,15.192 25.528,13.68 25.528,11.88 Z" fill="#61A0C1"></path>
                        <path d="M28.744,10.368 L34.096,10.368 C34.072,8.76 33.04,7.824 31.672,7.824 C30.112,7.824 29.032,8.76 28.744,10.368 Z" fill="#203555"></path>
                    </g>
                </g>
                <path d="M163.512,29.184 L163.512,15.96 L166.536,15.96 L166.536,28.728 C166.536,30 166.92,30.408 167.784,30.408 L168.24,30.384 L168.24,33.048 C167.928,33.096 167.616,33.12 167.28,33.12 C166.296,33.12 165.576,32.976 164.784,32.496 C163.992,31.992 163.512,30.84 163.512,29.184 Z M176.328,33.288 C174.432,33.288 172.824,32.688 171.528,31.488 C170.232,30.264 169.584,28.728 169.584,26.88 C169.584,25.032 170.232,23.496 171.528,22.296 C172.824,21.072 174.408,20.472 176.304,20.472 C178.2,20.472 179.784,21.072 181.08,22.296 C182.4,23.496 183.048,25.032 183.048,26.88 C183.048,28.728 182.4,30.264 181.104,31.488 C179.808,32.688 178.224,33.288 176.328,33.288 Z M172.68,26.88 C172.68,28.008 173.04,28.92 173.736,29.64 C174.432,30.336 175.296,30.696 176.328,30.696 C177.336,30.696 178.2,30.336 178.896,29.64 C179.592,28.92 179.952,28.008 179.952,26.88 C179.952,25.776 179.592,24.864 178.896,24.144 C178.2,23.424 177.336,23.064 176.328,23.064 C175.32,23.064 174.456,23.424 173.736,24.144 C173.04,24.864 172.68,25.776 172.68,26.88 Z M184.608,26.88 C184.608,25.08 185.208,23.568 186.432,22.344 C187.656,21.096 189.264,20.472 191.256,20.472 C192.192,20.472 193.056,20.616 193.848,20.928 C194.64,21.24 195.168,21.528 195.48,21.84 L195.96,22.296 L194.616,24.384 L194.208,24.024 C194.04,23.88 193.656,23.688 193.104,23.448 C192.552,23.184 192,23.064 191.424,23.064 C190.32,23.064 189.432,23.424 188.736,24.168 C188.04,24.888 187.704,25.776 187.704,26.856 C187.704,27.936 188.064,28.848 188.76,29.592 C189.456,30.336 190.392,30.696 191.52,30.696 C192.12,30.696 192.72,30.576 193.32,30.312 C193.92,30.048 194.376,29.808 194.664,29.544 L195.12,29.136 L196.296,31.296 C196.2,31.392 196.128,31.536 195.48,31.992 C195.168,32.208 194.808,32.424 194.448,32.592 C193.752,32.952 192.48,33.288 191.256,33.288 C189.264,33.288 187.656,32.688 186.432,31.464 C185.208,30.24 184.608,28.704 184.608,26.88 Z M201.624,33 L198.576,33 L198.576,15.96 L201.624,15.96 L201.624,25.08 L203.136,25.08 L206.088,20.76 L209.472,20.76 L205.608,26.232 L205.608,26.28 L209.952,33 L206.448,33 L203.208,27.648 L201.624,27.648 L201.624,33 Z M210.768,26.88 C210.768,24.984 211.344,23.448 212.496,22.272 C213.672,21.072 215.16,20.472 216.984,20.472 C218.688,20.472 220.032,21.024 220.968,22.128 C221.928,23.208 222.408,24.6 222.408,26.28 L222.336,27.456 L213.888,27.456 C214.08,29.496 215.64,30.696 217.56,30.696 C218.712,30.696 220.056,30.144 220.656,29.688 L221.088,29.352 L222.264,31.536 C222.168,31.632 222.072,31.752 221.4,32.16 C220.584,32.664 219.192,33.288 217.344,33.288 C215.376,33.288 213.792,32.664 212.568,31.44 C211.368,30.192 210.768,28.68 210.768,26.88 Z M213.984,25.368 L219.336,25.368 C219.312,23.76 218.28,22.824 216.912,22.824 C215.352,22.824 214.272,23.76 213.984,25.368 Z M224.088,26.88 C224.088,24.96 224.592,23.424 225.624,22.248 C226.656,21.072 228,20.472 229.632,20.472 C231.768,20.472 232.776,21.456 233.04,21.864 L233.16,22.032 L233.208,22.032 C233.184,21.816 233.184,21.6 233.184,21.336 L233.184,15.96 L236.232,15.96 L236.232,33 L233.352,33 L233.352,31.992 L233.4,31.2 L233.352,31.2 C233.28,31.32 233.256,31.44 232.8,31.92 C232.272,32.544 231.192,33.288 229.512,33.288 C227.856,33.288 226.536,32.688 225.552,31.512 C224.568,30.336 224.088,28.776 224.088,26.88 Z M227.16,26.88 C227.16,29.184 228.384,30.72 230.208,30.72 C231.936,30.72 233.28,29.424 233.28,26.856 C233.28,25.824 233.016,24.96 232.464,24.216 C231.936,23.472 231.192,23.088 230.232,23.088 C228.48,23.088 227.16,24.552 227.16,26.88 Z M242.616,18.672 L239.592,18.672 L239.592,15.96 L242.616,15.96 L242.616,18.672 Z M242.64,33 L239.592,33 L239.592,20.76 L242.64,20.76 L242.64,33 Z M249.048,33 L246,33 L246,20.76 L248.928,20.76 L248.928,22.176 L248.88,23.016 L248.928,23.016 C249.6,21.696 251.064,20.472 253.272,20.472 C256.104,20.472 257.52,22.032 257.52,25.128 L257.52,33 L254.496,33 L254.496,25.752 C254.496,24.12 254.016,23.256 252.552,23.256 C250.944,23.256 249.744,24.24 249.264,25.752 C249.12,26.184 249.048,26.736 249.048,27.384 L249.048,33 Z" id="lockedinlive" fill="#FFFFFF" mask="url(#mask-2)"></path>
            </g>
        </g>
    </g>
</svg>