<svg width="460" height="83" viewBox="0 0 460 83" fill="none" xmlns="http://www.w3.org/2000/svg">
<g id="Logo">
<rect id="Rectangle" opacity="0.01" width="460" height="83" fill="#FAFAFA"/>
<mask id="mask0" mask-type="alpha" maskUnits="userSpaceOnUse" x="0" y="0" width="460" height="83">
<rect id="Rectangle_2" width="460" height="83" fill="white"/>
</mask>
<g mask="url(#mask0)">
<path id="Oval Copy 4" d="M230 71C370.833 71 485 -43.1674 485 -184C485 -324.833 370.833 -439 230 -439C89.1674 -439 -25 -324.833 -25 -184C-25 -43.1674 89.1674 71 230 71Z" fill="#203555"/>
<g id="Group 11">
<g id="lockedin.app">
<path d="M166.162 29.0496C165.559 29.0496 165.025 28.8852 164.559 28.5564C164.093 28.2276 163.73 27.7823 163.47 27.2206C163.209 26.6452 163.079 25.9876 163.079 25.2478V14.0275C163.079 13.7261 163.175 13.4795 163.367 13.2877C163.559 13.0959 163.805 13 164.107 13C164.408 13 164.655 13.0959 164.847 13.2877C165.038 13.4795 165.134 13.7261 165.134 14.0275V25.2478C165.134 25.7547 165.23 26.1726 165.422 26.5014C165.614 26.8302 165.86 26.9946 166.162 26.9946H166.676C166.95 26.9946 167.169 27.0905 167.333 27.2823C167.511 27.4741 167.6 27.7207 167.6 28.0221C167.6 28.3235 167.47 28.5701 167.21 28.7619C166.95 28.9537 166.614 29.0496 166.203 29.0496H166.162Z" fill="white"/>
<path d="M174.126 29.1318C173.016 29.1318 172.036 28.892 171.187 28.4125C170.338 27.9193 169.666 27.248 169.173 26.3986C168.694 25.5355 168.454 24.5491 168.454 23.4394C168.454 22.316 168.694 21.3296 169.173 20.4802C169.666 19.6171 170.338 18.9458 171.187 18.4663C172.036 17.9731 173.016 17.7265 174.126 17.7265C175.222 17.7265 176.194 17.9731 177.044 18.4663C177.893 18.9458 178.558 19.6171 179.037 20.4802C179.53 21.3296 179.777 22.316 179.777 23.4394C179.777 24.5491 179.537 25.5355 179.058 26.3986C178.578 27.248 177.914 27.9193 177.064 28.4125C176.215 28.892 175.235 29.1318 174.126 29.1318ZM174.126 27.2823C174.838 27.2823 175.468 27.1179 176.016 26.7891C176.564 26.4603 176.989 26.0082 177.29 25.4328C177.605 24.8574 177.763 24.1929 177.763 23.4394C177.763 22.6859 177.605 22.0215 177.29 21.4461C176.989 20.857 176.564 20.398 176.016 20.0692C175.468 19.7404 174.838 19.576 174.126 19.576C173.413 19.576 172.783 19.7404 172.235 20.0692C171.687 20.398 171.255 20.857 170.94 21.4461C170.625 22.0215 170.468 22.6859 170.468 23.4394C170.468 24.1929 170.625 24.8574 170.94 25.4328C171.255 26.0082 171.687 26.4603 172.235 26.7891C172.783 27.1179 173.413 27.2823 174.126 27.2823Z" fill="white"/>
<path d="M187.993 29.1318C186.897 29.1318 185.917 28.8852 185.054 28.392C184.205 27.8851 183.533 27.2069 183.04 26.3575C182.561 25.4944 182.321 24.5217 182.321 23.4394C182.321 22.3297 182.561 21.3433 183.04 20.4802C183.52 19.6171 184.177 18.9458 185.013 18.4663C185.849 17.9731 186.808 17.7265 187.89 17.7265C189.507 17.7265 190.849 18.343 191.918 19.576C192.11 19.7952 192.178 20.0213 192.123 20.2542C192.069 20.4871 191.918 20.6926 191.671 20.8707C191.479 21.0077 191.267 21.0556 191.034 21.0145C190.801 20.9597 190.589 20.8364 190.397 20.6446C189.726 19.9322 188.89 19.576 187.89 19.576C186.835 19.576 185.979 19.9322 185.321 20.6446C184.664 21.3433 184.335 22.2749 184.335 23.4394C184.335 24.1792 184.486 24.8368 184.787 25.4122C185.102 25.9876 185.534 26.4466 186.082 26.7891C186.63 27.1179 187.267 27.2823 187.993 27.2823C188.924 27.2823 189.678 27.0425 190.253 26.563C190.473 26.3849 190.699 26.289 190.931 26.2753C191.164 26.2479 191.37 26.3096 191.548 26.4603C191.781 26.6521 191.911 26.8713 191.938 27.1179C191.966 27.3508 191.884 27.5631 191.692 27.7549C190.705 28.6728 189.472 29.1318 187.993 29.1318Z" fill="white"/>
<path d="M196.245 29.0496C195.944 29.0496 195.697 28.9605 195.506 28.7824C195.328 28.5906 195.238 28.344 195.238 28.0426V14.007C195.238 13.7056 195.328 13.4658 195.506 13.2877C195.697 13.0959 195.944 13 196.245 13C196.547 13 196.787 13.0959 196.965 13.2877C197.156 13.4658 197.252 13.7056 197.252 14.007V22.3708L202.246 17.9115C202.452 17.7197 202.678 17.6306 202.924 17.6443C203.185 17.658 203.404 17.7676 203.582 17.9731C203.774 18.1786 203.863 18.4047 203.849 18.6513C203.835 18.8979 203.726 19.1171 203.52 19.3089L199.739 22.6791L203.726 27.57C203.904 27.7892 203.979 28.0289 203.952 28.2892C203.938 28.5358 203.815 28.755 203.582 28.9468C203.363 29.1249 203.116 29.2003 202.842 29.1729C202.582 29.1592 202.363 29.0427 202.184 28.8235L198.28 23.9943L197.252 24.8985V28.0426C197.252 28.344 197.156 28.5906 196.965 28.7824C196.787 28.9605 196.547 29.0496 196.245 29.0496Z" fill="white"/>
<path d="M211.196 29.1318C210.059 29.1318 209.045 28.892 208.155 28.4125C207.278 27.9193 206.586 27.248 206.079 26.3986C205.586 25.5355 205.339 24.5491 205.339 23.4394C205.339 22.316 205.572 21.3296 206.038 20.4802C206.518 19.6171 207.175 18.9458 208.011 18.4663C208.847 17.9731 209.806 17.7265 210.888 17.7265C211.957 17.7265 212.874 17.9663 213.642 18.4458C214.409 18.9116 214.991 19.5623 215.388 20.398C215.799 21.22 216.005 22.1722 216.005 23.2545C216.005 23.5148 215.916 23.734 215.738 23.9121C215.56 24.0765 215.334 24.1587 215.06 24.1587H207.251C207.401 25.104 207.833 25.878 208.545 26.4808C209.271 27.0699 210.155 27.3645 211.196 27.3645C211.621 27.3645 212.052 27.2891 212.491 27.1384C212.943 26.974 213.306 26.7891 213.58 26.5836C213.786 26.4329 214.005 26.3575 214.238 26.3575C214.484 26.3438 214.697 26.4123 214.875 26.563C215.108 26.7685 215.231 26.9946 215.245 27.2412C215.258 27.4878 215.149 27.7001 214.916 27.8782C214.45 28.2481 213.868 28.5495 213.169 28.7824C212.484 29.0153 211.826 29.1318 211.196 29.1318ZM210.888 19.4938C209.874 19.4938 209.059 19.7747 208.443 20.3364C207.826 20.8981 207.436 21.6242 207.271 22.5147H214.114C213.991 21.6379 213.655 20.9186 213.107 20.3569C212.559 19.7815 211.82 19.4938 210.888 19.4938Z" fill="white"/>
<path d="M223.373 29.1318C222.305 29.1318 221.339 28.8852 220.476 28.392C219.626 27.8851 218.948 27.2001 218.441 26.337C217.948 25.4739 217.702 24.5012 217.702 23.4189C217.702 22.3366 217.928 21.3707 218.38 20.5213C218.846 19.6582 219.476 18.9801 220.27 18.4869C221.065 17.98 221.962 17.7265 222.962 17.7265C223.771 17.7265 224.517 17.8978 225.202 18.2403C225.887 18.5691 226.463 19.0212 226.929 19.5966V14.0481C226.929 13.733 227.024 13.4795 227.216 13.2877C227.422 13.0959 227.675 13 227.977 13C228.292 13 228.545 13.0959 228.737 13.2877C228.929 13.4795 229.025 13.733 229.025 14.0481V23.4189C229.025 24.5012 228.771 25.4739 228.264 26.337C227.771 27.2001 227.1 27.8851 226.25 28.392C225.401 28.8852 224.442 29.1318 223.373 29.1318ZM223.373 27.2823C224.072 27.2823 224.695 27.1179 225.243 26.7891C225.791 26.4466 226.223 25.9808 226.538 25.3917C226.853 24.8026 227.011 24.145 227.011 23.4189C227.011 22.6791 226.853 22.0215 226.538 21.4461C226.223 20.8707 225.791 20.4186 225.243 20.0898C224.695 19.7473 224.072 19.576 223.373 19.576C222.688 19.576 222.065 19.7473 221.503 20.0898C220.955 20.4186 220.517 20.8707 220.188 21.4461C219.873 22.0215 219.716 22.6791 219.716 23.4189C219.716 24.145 219.873 24.8026 220.188 25.3917C220.517 25.9808 220.955 26.4466 221.503 26.7891C222.065 27.1179 222.688 27.2823 223.373 27.2823Z" fill="white"/>
<path d="M233.98 29.0496C233.678 29.0496 233.425 28.9537 233.219 28.7619C233.028 28.5564 232.932 28.3029 232.932 28.0015V18.8568C232.932 18.5417 233.028 18.2882 233.219 18.0964C233.425 17.9046 233.678 17.8087 233.98 17.8087C234.295 17.8087 234.548 17.9046 234.74 18.0964C234.932 18.2882 235.028 18.5417 235.028 18.8568V28.0015C235.028 28.3029 234.932 28.5564 234.74 28.7619C234.548 28.9537 234.295 29.0496 233.98 29.0496ZM233.98 15.9798C233.61 15.9798 233.288 15.8496 233.014 15.5893C232.754 15.3153 232.624 14.9934 232.624 14.6235C232.624 14.2536 232.754 13.9385 233.014 13.6782C233.288 13.4042 233.61 13.2672 233.98 13.2672C234.35 13.2672 234.665 13.4042 234.925 13.6782C235.199 13.9385 235.336 14.2536 235.336 14.6235C235.336 14.9934 235.199 15.3153 234.925 15.5893C234.665 15.8496 234.35 15.9798 233.98 15.9798Z" fill="white"/>
<path d="M239.975 29.0701C239.674 29.0701 239.421 28.9742 239.215 28.7824C239.023 28.5769 238.927 28.3235 238.927 28.0221V18.8568C238.927 18.5417 239.023 18.2882 239.215 18.0964C239.421 17.9046 239.674 17.8087 239.975 17.8087C240.291 17.8087 240.544 17.9046 240.736 18.0964C240.928 18.2882 241.023 18.5417 241.023 18.8568V19.0828C241.448 18.6581 241.962 18.3225 242.565 18.0759C243.168 17.8293 243.818 17.706 244.517 17.706C245.462 17.706 246.305 17.9115 247.045 18.3225C247.798 18.7198 248.387 19.3089 248.812 20.0898C249.25 20.8707 249.47 21.8297 249.47 22.9668V28.0221C249.47 28.3235 249.367 28.5769 249.161 28.7824C248.97 28.9742 248.723 29.0701 248.422 29.0701C248.12 29.0701 247.867 28.9742 247.661 28.7824C247.469 28.5769 247.373 28.3235 247.373 28.0221V22.9668C247.373 21.8023 247.058 20.9529 246.428 20.4186C245.812 19.8706 245.038 19.5966 244.106 19.5966C243.531 19.5966 243.01 19.713 242.544 19.9459C242.078 20.1788 241.709 20.4939 241.434 20.8912C241.16 21.2748 241.023 21.7201 241.023 22.227V28.0221C241.023 28.3235 240.928 28.5769 240.736 28.7824C240.544 28.9742 240.291 29.0701 239.975 29.0701Z" fill="white"/>
</g>
<g id="lockedin.app_2">
<path d="M253.531 29.3783C253.148 29.3783 252.812 29.2413 252.524 28.9673C252.25 28.6796 252.113 28.344 252.113 27.9604C252.113 27.5631 252.25 27.2274 252.524 26.9534C252.812 26.6657 253.148 26.5219 253.531 26.5219C253.928 26.5219 254.264 26.6657 254.538 26.9534C254.812 27.2274 254.949 27.5631 254.949 27.9604C254.949 28.344 254.812 28.6796 254.538 28.9673C254.264 29.2413 253.928 29.3783 253.531 29.3783Z" fill="#55D9CC"/>
<path d="M262.517 29.1317C261.517 29.1317 260.62 28.8851 259.825 28.3919C259.031 27.885 258.4 27.2069 257.935 26.3575C257.483 25.4944 257.256 24.5217 257.256 23.4394C257.256 22.357 257.503 21.3843 257.996 20.5212C258.503 19.6581 259.181 18.98 260.031 18.4868C260.894 17.9799 261.86 17.7264 262.928 17.7264C263.997 17.7264 264.956 17.9799 265.805 18.4868C266.655 18.98 267.326 19.6581 267.819 20.5212C268.326 21.3843 268.58 22.357 268.58 23.4394V28.022C268.58 28.3234 268.477 28.5769 268.271 28.7824C268.079 28.9742 267.833 29.0701 267.531 29.0701C267.23 29.0701 266.977 28.9742 266.771 28.7824C266.579 28.5769 266.483 28.3234 266.483 28.022V27.2617C266.004 27.8371 265.422 28.296 264.737 28.6385C264.065 28.9673 263.326 29.1317 262.517 29.1317ZM262.928 27.2822C263.627 27.2822 264.25 27.1178 264.798 26.789C265.346 26.4465 265.778 25.9876 266.093 25.4122C266.408 24.8231 266.566 24.1655 266.566 23.4394C266.566 22.6995 266.408 22.0419 266.093 21.4665C265.778 20.8774 265.346 20.4185 264.798 20.0897C264.25 19.7472 263.627 19.5759 262.928 19.5759C262.243 19.5759 261.62 19.7472 261.058 20.0897C260.51 20.4185 260.072 20.8774 259.743 21.4665C259.428 22.0419 259.27 22.6995 259.27 23.4394C259.27 24.1655 259.428 24.8231 259.743 25.4122C260.072 25.9876 260.51 26.4465 261.058 26.789C261.62 27.1178 262.243 27.2822 262.928 27.2822Z" fill="#55D9CC"/>
<path d="M272.747 33.8582C272.446 33.8582 272.192 33.7555 271.987 33.55C271.795 33.3582 271.699 33.1116 271.699 32.8102V23.4394C271.713 22.357 271.966 21.3843 272.459 20.5212C272.953 19.6581 273.624 18.98 274.473 18.4868C275.323 17.9799 276.282 17.7264 277.35 17.7264C278.433 17.7264 279.399 17.9799 280.248 18.4868C281.097 18.98 281.769 19.6581 282.262 20.5212C282.769 21.3843 283.022 22.357 283.022 23.4394C283.022 24.5217 282.789 25.4944 282.323 26.3575C281.871 27.2069 281.248 27.885 280.453 28.3919C279.659 28.8851 278.761 29.1317 277.761 29.1317C276.953 29.1317 276.206 28.9673 275.521 28.6385C274.85 28.296 274.275 27.8371 273.795 27.2617V32.8102C273.795 33.1116 273.699 33.3582 273.508 33.55C273.316 33.7555 273.062 33.8582 272.747 33.8582ZM277.35 27.2822C278.049 27.2822 278.672 27.1178 279.22 26.789C279.768 26.4465 280.2 25.9876 280.515 25.4122C280.844 24.8231 281.008 24.1655 281.008 23.4394C281.008 22.6995 280.844 22.0419 280.515 21.4665C280.2 20.8774 279.768 20.4185 279.22 20.0897C278.672 19.7472 278.049 19.5759 277.35 19.5759C276.665 19.5759 276.042 19.7472 275.48 20.0897C274.932 20.4185 274.501 20.8774 274.186 21.4665C273.871 22.0419 273.713 22.6995 273.713 23.4394C273.713 24.1655 273.871 24.8231 274.186 25.4122C274.501 25.9876 274.932 26.4465 275.48 26.789C276.042 27.1178 276.665 27.2822 277.35 27.2822Z" fill="#55D9CC"/>
<path d="M287.196 33.8582C286.895 33.8582 286.642 33.7555 286.436 33.55C286.244 33.3582 286.148 33.1116 286.148 32.8102V23.4394C286.162 22.357 286.416 21.3843 286.909 20.5212C287.402 19.6581 288.073 18.98 288.923 18.4868C289.772 17.9799 290.731 17.7264 291.8 17.7264C292.882 17.7264 293.848 17.9799 294.697 18.4868C295.547 18.98 296.218 19.6581 296.711 20.5212C297.218 21.3843 297.471 22.357 297.471 23.4394C297.471 24.5217 297.239 25.4944 296.773 26.3575C296.321 27.2069 295.697 27.885 294.903 28.3919C294.108 28.8851 293.211 29.1317 292.211 29.1317C291.402 29.1317 290.656 28.9673 289.971 28.6385C289.299 28.296 288.724 27.8371 288.244 27.2617V32.8102C288.244 33.1116 288.149 33.3582 287.957 33.55C287.765 33.7555 287.512 33.8582 287.196 33.8582ZM291.8 27.2822C292.498 27.2822 293.122 27.1178 293.67 26.789C294.218 26.4465 294.649 25.9876 294.964 25.4122C295.293 24.8231 295.458 24.1655 295.458 23.4394C295.458 22.6995 295.293 22.0419 294.964 21.4665C294.649 20.8774 294.218 20.4185 293.67 20.0897C293.122 19.7472 292.498 19.5759 291.8 19.5759C291.115 19.5759 290.491 19.7472 289.93 20.0897C289.382 20.4185 288.95 20.8774 288.635 21.4665C288.32 22.0419 288.162 22.6995 288.162 23.4394C288.162 24.1655 288.32 24.8231 288.635 25.4122C288.95 25.9876 289.382 26.4465 289.93 26.789C290.491 27.1178 291.115 27.2822 291.8 27.2822Z" fill="#55D9CC"/>
</g>
</g>
</g>
</g>
</svg>
